<svg xmlns="http://www.w3.org/2000/svg" width="35" height="30" viewBox="0 0 35 30">
    <path fill="#FFF" fill-rule="evenodd" d="M7.479 16.39c-.643 1.067-1.236 2.168-2.03 3.135-.925 1.126-1.75 1.212-2.677.562C1.535 19.221.019 15.937 0 13.225.072 5.798 7.753.635 15.47.015c.307-.03.775-.04 1.128.222.359.264.424.664.164 1.179-.443.876-1.028 1.666-1.587 2.47-2.8 4.024-5.17 8.311-7.696 12.504zm21.94 3.135c-.795-.967-1.388-2.068-2.03-3.135-2.526-4.193-4.897-8.48-7.697-12.505-.559-.803-1.143-1.593-1.586-2.47-.26-.514-.196-.914.163-1.178.353-.261.821-.252 1.129-.223 7.716.62 15.398 5.784 15.47 13.21-.02 2.713-1.536 5.997-2.772 6.863-.927.65-1.752.564-2.677-.562zm-10.536-6.334c4.24.637 7.189 3.024 9.01 6.82.93 1.941.517 3.277-1.164 4.6-.098.078-.196.153-.295.228-.31.208-.616.409-.914.603-4.396 2.87-6.004 3.889-6.653 4.186-.27.124-.745.355-1.398.37V30h-.07v-.001c-.653-.016-1.128-.247-1.399-.37-.649-.298-2.256-1.317-6.653-4.187a96.314 96.314 0 0 1-.91-.6c-.1-.077-.2-.153-.298-.23-1.681-1.325-2.095-2.66-1.164-4.6 1.82-3.798 4.769-6.184 9.01-6.821a10.61 10.61 0 0 1 1.449-.121c.16.001.721.012 1.45.121z"/>
</svg>
