<svg xmlns="http://www.w3.org/2000/svg" width="83" height="30" viewBox="0 0 83 30">
    <g fill="#FFF" fill-rule="evenodd">
        <path d="M1.004 13.66h3.58v-2.373c0-1.769.64-3.258 1.922-4.469C7.788 5.61 9.31 5.002 11.07 5.002h.512V8.38h-.512c-.82 0-1.533.29-2.15.87-.612.58-.92 1.258-.92 2.036v2.377h3.582v3.415H7.999v1.118c0 1.787-.634 3.314-1.903 4.582-1.266 1.266-2.795 1.9-4.583 1.9h-.51v-3.414h.51c.832 0 1.553-.305 2.158-.91s.91-1.324.91-2.158V17.08H1v-3.417l.003-.002zM13.351 21.56h3.416V5h-3.416zM21.914 15.586c0 .833.308 1.553.921 2.158.612.61 1.33.911 2.148.911.832 0 1.552-.304 2.158-.91.607-.607.91-1.325.91-2.159 0-.818-.305-1.533-.91-2.147-.609-.613-1.326-.92-2.158-.92-.818 0-1.533.307-2.148.92-.613.611-.92 1.33-.92 2.147m-3.396 0c0-1.786.63-3.31 1.89-4.571 1.263-1.261 2.785-1.89 4.571-1.89 1.787 0 3.315.631 4.583 1.89 1.269 1.264 1.903 2.785 1.903 4.571 0 1.788-.634 3.315-1.903 4.583-1.267 1.268-2.796 1.903-4.583 1.903-1.786 0-3.31-.635-4.57-1.903-1.26-1.27-1.891-2.795-1.891-4.583M35.92 15.586c0 .833.307 1.553.92 2.158.614.61 1.33.911 2.15.911.831 0 1.55-.304 2.157-.91.609-.607.91-1.325.91-2.159 0-.818-.305-1.533-.91-2.147-.608-.613-1.324-.92-2.158-.92-.818 0-1.532.307-2.149.92-.613.611-.92 1.33-.92 2.147m-3.395 0c0-1.786.632-3.31 1.892-4.571 1.262-1.261 2.785-1.89 4.57-1.89 1.787 0 3.315.631 4.584 1.89 1.267 1.264 1.901 2.785 1.901 4.571 0 1.788-.634 3.315-1.901 4.583-1.268 1.268-2.797 1.903-4.583 1.903s-3.312-.635-4.572-1.903c-1.26-1.27-1.89-2.795-1.89-4.583M59.398 24.687l-6.742-6.25L48.267 23l-2.65-2.379 4.504-4.6-3.827-3.701 2.474-2.644 3.745 3.647 6.585-6.407 2.65 2.378-6.53 6.38 6.768 6.252z"/>
        <path d="M67.61 12.492c-1.815 0-2.812 1.539-2.955 1.99h5.964c-.133-.451-1.032-1.99-3.008-1.99m-6.414 3.244c0-3.58 2.704-6.47 6.648-6.47 3.588 0 6.278 2.985 6.278 6.89 0 0 0 .57-.18 1.012H64.74c.39.728 1.342 2.13 3.059 2.13 1.577 0 2.23-.24 3.622-1.087l1.646 2.497c-1.483 1.21-3.733 1.523-5.194 1.523-3.254-.001-6.676-2.43-6.676-6.495M79.104 21.56v-6.157c0-.777.308-1.456.92-2.038.615-.58 1.33-.87 2.15-.87h.511V9.119h-.51c-1.761 0-3.282.607-4.564 1.817-1.282 1.208-1.922 2.697-1.922 4.468v6.153l3.415.003z"/>
    </g>
</svg>
