<?xml version="1.0" encoding="utf-8"?>
<!-- Generator: Adobe Illustrator 16.0.0, SVG Export Plug-In . SVG Version: 6.00 Build 0)  -->
<!DOCTYPE svg PUBLIC "-//W3C//DTD SVG 1.1//EN" "http://www.w3.org/Graphics/SVG/1.1/DTD/svg11.dtd">
<svg version="1.1" id="Capa_1" xmlns="http://www.w3.org/2000/svg" xmlns:xlink="http://www.w3.org/1999/xlink" x="0px" y="0px"
	 width="52px" height="30px" viewBox="0 0 52 30" enable-background="new 0 0 52 30" xml:space="preserve">
<g>
	<g>
		<g>
			<g transform="translate(-71 -659) translate(71 659) translate(0 6.46)">
				<defs>
					<filter id="Adobe_OpacityMaskFilter" filterUnits="userSpaceOnUse" x="0.029" y="3.032" width="15.386" height="17.479">
						<feColorMatrix  type="matrix" values="1 0 0 0 0  0 1 0 0 0  0 0 1 0 0  0 0 0 1 0"/>
					</filter>
				</defs>
				<mask maskUnits="userSpaceOnUse" x="0.029" y="3.032" width="15.386" height="17.479" id="e7m488dq1b_1_">
					<g filter="url(#Adobe_OpacityMaskFilter)">
						<path id="m9bilk2fza_1_" fill="#FFFFFF" d="M0.029,3.032h15.386v17.48H0.029V3.032z"/>
					</g>
				</mask>
				<path mask="url(#e7m488dq1b_1_)" fill="#FEFDFE" d="M14.362,3.712c-1.244-1.035-3.095-0.87-4.135,0.368L0.712,15.715
					c-1.04,1.24-0.874,3.082,0.37,4.117c1.244,1.035,3.094,0.87,4.134-0.369l9.516-11.635C15.772,6.588,15.605,4.746,14.362,3.712"
					/>
			</g>
			<path fill="#FEFDFE" d="M17.392,3.118c-1.818,0-3.292,1.467-3.292,3.278c0,1.81,1.474,3.277,3.292,3.277
				c1.817,0,3.29-1.468,3.29-3.277C20.682,4.586,19.209,3.118,17.392,3.118 M25.755,14.73c-2.256,0-2.955,1.834-2.955,3.732
				c0,1.771,0.604,3.765,2.828,3.765c1.874,0,2.635-1.582,2.635-3.922C28.264,15.994,27.184,14.729,25.755,14.73L25.755,14.73z
				 M28.17,6.609C28.17,4.573,29.512,3,31.545,3c1.883,0,3.269,1.642,3.269,3.433v17.084c0,2.336-1.075,3.453-3.045,3.453
				c-1.874,0-3.028-1.297-3.028-2.974h-0.063c-0.541,2.088-3.113,2.974-4.987,2.974c-4.574,0-7.433-3.385-7.433-8.729
				c0-3.195,1.779-8.636,7.242-8.636c2.16,0,3.654,1.013,4.606,2.53h0.064V6.609L28.17,6.609z M49.524,22.004
				c1.493,0,2.446,0.475,2.446,2.278c0,1.803-0.953,2.276-2.446,2.276H37.74c-1.557,0-2.223-1.264-2.223-2.371
				c0-1.043,0.316-1.771,1.429-2.879l6.892-6.738h-5.177c-1.493,0-2.446-0.474-2.446-2.277c0-1.677,0.795-2.278,2.795-2.278h10.355
				c1.652,0,2.383,1.17,2.383,2.784c0,1.044-0.222,1.55-1.111,2.435l-6.799,6.77L49.524,22.004L49.524,22.004z M0.109,20.915V6.357
				c0-1.847,1.504-3.344,3.36-3.344c1.854,0,3.358,1.497,3.358,3.344v6.407L0.109,20.915z M12.947,18.587l2.089,2.923
				c1.075,1.506,0.72,3.594-0.791,4.664c-1.51,1.07-3.607,0.719-4.682-0.787L8.535,23.95L12.947,18.587L12.947,18.587z"/>
		</g>
	</g>
</g>
</svg>
