<svg xmlns="http://www.w3.org/2000/svg" width="500" height="216" viewBox="0 0 500 216">
    <g fill="none" fill-rule="evenodd">
        <path fill="#FF0028" stroke="#FF0028" stroke-width=".5" d="M285.038 158.92l66.477 47.781 138.641-99.648L351.515 7.4l-66.477 47.782 68.42 49.182c.865.623 1.38 1.624 1.38 2.69 0 1.066-.515 2.065-1.38 2.688l-68.42 49.178zm66.477 55.18c-.682 0-1.362-.207-1.943-.625l-72.16-51.866c-.866-.622-1.38-1.623-1.38-2.689 0-1.065.514-2.067 1.38-2.689l68.419-49.178-68.42-49.182c-.865-.623-1.378-1.623-1.378-2.689 0-1.065.513-2.066 1.379-2.689L349.572.625c1.162-.834 2.725-.834 3.885 0l144.326 103.74c.866.622 1.38 1.623 1.38 2.688 0 1.067-.514 2.066-1.38 2.69L353.457 213.474c-.58.418-1.261.625-1.942.625h0z" transform="translate(0 1)"/>
        <path fill="#FDFCFF" d="M22.017 45.737L0 97.362h11.523l4.7-11.498h21.73l4.694 11.498h11.82L32.438 45.737H22.017zm5.071 13.55l6.826 16.619H20.26l6.828-16.62zM80.097 56.503L80.097 97.363 68.792 97.363 68.792 56.503 53.163 56.503 53.163 46.105 95.729 46.105 95.729 56.503zM136.852 63.606c0-4.833-3.37-7.324-8.879-7.324H116.74V71h11.45c5.506 0 8.662-2.927 8.662-7.246v-.147zm-.216 33.757l-11.011-16.4h-8.885v16.4H105.44V46.105h23.485c12.115 0 19.377 6.369 19.377 16.914v.15c0 8.272-4.476 13.473-11.008 15.885l12.55 18.31h-13.207zM159.554 97.363L159.554 46.104 198.312 46.104 198.312 56.139 170.789 56.139 170.789 66.534 195.007 66.534 195.007 76.567 170.789 76.567 170.789 87.329 198.681 87.329 198.681 97.363zM228.058 98.095c-7.78 0-15.634-2.706-21.8-8.2l6.679-7.982c4.622 3.808 9.473 6.225 15.345 6.225 4.618 0 7.415-1.832 7.415-4.836v-.148c0-2.853-1.77-4.32-10.356-6.512-10.35-2.638-17.03-5.495-17.03-15.673v-.146c0-9.298 7.492-15.451 17.983-15.451 7.492 0 13.88 2.346 19.084 6.515l-5.873 8.494c-4.55-3.148-9.02-5.046-13.356-5.046-4.333 0-6.607 1.977-6.607 4.464v.146c0 3.366 2.205 4.465 11.087 6.735 10.42 2.714 16.293 6.443 16.293 15.377v.15c0 10.18-7.783 15.888-18.864 15.888M37.36 148.34c-.52 2.067-1.38 3.893-2.555 5.426-1.184 1.543-2.73 2.767-4.595 3.638-1.86.873-4.12 1.316-6.722 1.316-2.46 0-4.76-.395-6.836-1.171-2.072-.774-3.682-1.593-4.788-2.434l-.154-.117v-29.381l.292-.076c.908-.238 2.133-.449 3.642-.628 1.514-.177 3.637-.268 6.313-.268 4.87 0 8.827 1.492 11.762 4.431 2.932 2.94 4.42 7.182 4.42 12.606 0 2.366-.262 4.607-.778 6.657m2.606-23.9c-2.12-2.008-4.714-3.58-7.712-4.671-3.005-1.096-6.437-1.65-10.2-1.65-4.108 0-7.772.279-10.891.83-2.979.526-5.525 1.021-7.571 1.47v59.98h8.117v-18.62l.592.354c1.048.627 2.679 1.296 4.846 1.99 2.155.69 4.674 1.04 7.49 1.04 3.499 0 6.65-.582 9.367-1.732 2.712-1.145 5.032-2.774 6.898-4.835 1.867-2.063 3.305-4.564 4.273-7.437.97-2.883 1.465-6.073 1.465-9.476 0-3.628-.588-6.942-1.746-9.852-1.152-2.897-2.81-5.383-4.928-7.391M65.234 156.941c-.625-.573-1.083-1.345-1.355-2.292-.264-.91-.396-2.072-.396-3.454v-43.753l-8.12 1.285v43.79c0 4.206 1.117 7.339 3.317 9.308 2.165 1.94 5.895 3 11.087 3.15l1.111-6.135c-1.24-.17-2.31-.377-3.186-.62-1.013-.28-1.84-.71-2.458-1.279M106.847 158.29l-.308.067c-1.1.24-2.49.406-4.13.493-1.61.087-3.5.133-5.617.133-3.56 0-6.428-.595-8.519-1.768-2.164-1.212-3.262-3.386-3.262-6.46 0-1.677.452-3.05 1.34-4.087.858-1.005 1.951-1.81 3.245-2.39 1.278-.574 2.701-.954 4.231-1.133 3.81-.447 7.171-.3 9.576.045 1.482.213 2.534.468 3.215.78l.23.102v14.218zm3.873-35.58c-1.45-1.505-3.394-2.686-5.779-3.513-2.409-.834-5.409-1.257-8.916-1.257-3.086 0-5.994.22-8.644.656-2.421.397-4.226.81-5.37 1.23l.93 6.006c1.087-.36 2.582-.705 4.546-1.049 2.223-.383 4.838-.578 7.773-.578 2.34 0 4.276.323 5.753.958 1.484.636 2.676 1.504 3.546 2.58.86 1.065 1.465 2.302 1.797 3.675.326 1.344.491 2.723.491 4.1v2.775l-.476-.106c-.252-.055-.695-.142-1.326-.259-.636-.118-1.385-.25-2.243-.395-.85-.147-1.756-.263-2.697-.351-.956-.085-1.877-.13-2.74-.13-2.768 0-5.446.264-7.958.785-2.499.517-4.713 1.333-6.583 2.421-1.849 1.078-3.332 2.514-4.408 4.27-1.073 1.75-1.618 3.874-1.618 6.316 0 2.569.47 4.791 1.395 6.602.919 1.81 2.227 3.287 3.887 4.389 1.674 1.112 3.69 1.938 5.992 2.454 2.32.52 4.899.783 7.667.783 1.951 0 3.953-.074 5.95-.22 1.98-.144 3.86-.306 5.587-.483 1.722-.174 3.276-.367 4.624-.569 1.183-.177 2.14-.32 2.873-.434v-28.289c0-2.53-.316-4.88-.94-6.978-.619-2.072-1.666-3.886-3.113-5.389zM144.78 156.635l-.396-.772c-1.537-3.007-3.022-6.156-4.412-9.358-1.407-3.237-2.729-6.503-3.931-9.706-1.205-3.21-2.318-6.386-3.307-9.44-.953-2.942-1.783-5.723-2.465-8.273h-8.75c2.263 7.897 5.122 15.784 8.5 23.453 3.456 7.852 7.233 15.381 11.226 22.378l.105.178-.092.187c-1.616 3.27-3.461 5.674-5.48 7.146-2.038 1.481-4.885 2.233-8.461 2.233-1.11 0-2.25-.136-3.392-.407-.915-.217-1.708-.448-2.362-.69l-1.443 5.844c.236.086.551.186.942.3.587.171 1.25.331 1.977.477.729.146 1.476.261 2.216.345.742.087 1.467.13 2.157.13 2.568 0 4.9-.292 6.927-.866 2.016-.57 3.858-1.467 5.471-2.666 1.615-1.199 3.116-2.757 4.462-4.628 1.345-1.871 2.67-4.149 3.937-6.766 3.227-6.87 6.28-14.37 9.075-22.288 2.738-7.764 5.266-15.96 7.514-24.36h-8.37c-1.563 6.257-3.248 12.443-5.002 18.39-1.784 6.032-3.912 12.206-6.328 18.352l-.318.807zM202.238 137.58h-25.514l.053-.436c.194-1.613.605-3.216 1.219-4.766.625-1.567 1.503-2.97 2.613-4.17 1.114-1.208 2.492-2.2 4.092-2.953 1.608-.754 3.483-1.137 5.575-1.137 3.737 0 6.716 1.245 8.859 3.7 2.13 2.442 3.175 5.598 3.11 9.38l-.007.383zm-11.868-19.64c-2.81 0-5.597.497-8.287 1.474-2.678.976-5.08 2.459-7.137 4.408-2.055 1.949-3.73 4.438-4.98 7.398-1.25 2.958-1.883 6.476-1.883 10.462 0 3.412.492 6.585 1.463 9.43.964 2.837 2.463 5.322 4.456 7.385 1.991 2.063 4.567 3.706 7.657 4.885 3.102 1.18 6.838 1.78 11.103 1.78 3.394 0 6.475-.295 9.154-.874 2.449-.53 4.241-1.039 5.336-1.52l-1.102-6.097c-1.082.42-2.573.852-4.445 1.29-2.158.502-4.845.759-7.984.759-5.63 0-9.84-1.281-12.519-3.806-2.675-2.522-4.23-6.25-4.618-11.087l-.034-.42h34.142c.036-.36.053-.746.053-1.151v-1.366c0-7.729-1.768-13.552-5.254-17.306-3.482-3.745-8.57-5.645-15.12-5.645zM243.605 118.596c-.983-.148-1.957-.265-2.893-.349-.968-.086-1.84-.13-2.598-.13-3.85 0-7.367.308-10.451.917-2.973.587-5.505 1.22-7.532 1.88v43.189h8.117v-38.41l.305-.069c.512-.117 1.584-.338 3.216-.662 1.65-.327 3.334-.493 5.005-.493 2.559 0 4.693.166 6.344.493 1.35.268 2.397.51 3.124.72l1.365-6.355c-.352-.089-.816-.187-1.384-.293-.794-.144-1.666-.292-2.618-.438" transform="translate(0 1)"/>
    </g>
</svg>
