<svg xmlns="http://www.w3.org/2000/svg" width="70" height="30" viewBox="0 0 70 30">
    <path fill="#FFF" fill-rule="evenodd" d="M55.945 17.17l2.257-5.646 2.228 5.645h-4.485zm-31.523 3.115v-3.172h6.813v-4.37h-6.813V9.713h9.481c-.951 1.527-1.487 3.336-1.487 5.29v.056c0 1.967.512 3.74 1.42 5.225h-9.414zM60.917 5h-5.344l-3.57 8.385h-9.62v3.898h3.789v2.334c-.797.522-1.785.797-3.075.797-3.048 0-5.217-2.224-5.217-5.327v-.055c0-2.938 2.141-5.271 4.914-5.271 1.895 0 3.268.659 4.64 1.812l3.13-3.761C48.534 6.055 46.145 5 42.768 5H17.913l-6.006 7.991L5.987 5H0v19.999h5.431V14.675l6.502 8.831 6.441-8.831v10.324h16.274v-3.585c1.881 2.239 4.808 3.585 8.229 3.585h10.011l1.428-3.546h7.715l1.457 3.546h5.942L60.917 5z"/>
</svg>
