<svg xmlns="http://www.w3.org/2000/svg" xmlns:xlink="http://www.w3.org/1999/xlink" width="80" height="30" viewBox="0 0 80 30">
    <defs>
        <path id="a" d="M0 9.653v9.267h4.822V9.653a4.826 4.826 0 0 1 4.823-4.821 4.827 4.827 0 0 1 4.82 4.82v9.268h4.82V9.653c0-5.318-4.325-9.648-9.643-9.648C4.327.008 0 4.335 0 9.653z"/>
        <path id="b" d="M41.411 9.653c0-5.318 4.326-9.645 9.645-9.648 5.322 0 9.647 4.33 9.647 9.648 0 5.32-4.325 9.645-9.647 9.645s-9.645-4.328-9.645-9.645zm4.822 0c0 2.66 2.162 4.82 4.822 4.82a4.828 4.828 0 0 0 4.823-4.82 4.828 4.828 0 0 0-4.823-4.821 4.826 4.826 0 0 0-4.822 4.82z"/>
        <path id="c" d="M61.545 4.817c3.008 0 5.401 2.16 5.401 4.818 0 2.655-2.393 4.817-5.401 4.817v4.816c4.01 0 7.417-1.906 9.303-4.74 1.88 2.847 5.35 4.76 9.317 4.76v-4.816c-2.983 0-5.403-2.162-5.403-4.817 0-2.658 2.422-4.82 5.403-4.82V.018c-3.952 0-7.417 1.906-9.303 4.74C68.982 1.91 65.555 0 61.545 0v4.817z"/>
        <path id="d" d="M20.925 9.658c0-5.34 4.034-9.65 9.917-9.65 5.352 0 9.366 4.452 9.366 10.282 0 0 0 .85-.271 1.51H26.21c.582 1.082 2.003 3.177 4.56 3.177 2.355 0 3.33-.357 5.41-1.62l2.451 3.724c-2.214 1.805-5.567 2.273-7.75 2.273-4.85-.004-9.956-3.63-9.956-9.696zm9.569-4.84c-2.71 0-4.195 2.295-4.41 2.97h8.897c-.196-.674-1.539-2.97-4.487-2.97z"/>
    </defs>
    <g fill="#FFF" fill-rule="evenodd" transform="translate(0 5)">
        <use xlink:href="#a"/>
        <use xlink:href="#b"/>
        <use xlink:href="#c"/>
        <use xlink:href="#d"/>
    </g>
</svg>
