<svg xmlns="http://www.w3.org/2000/svg" width="76" height="30" viewBox="0 0 76 30">
    <g fill="#FFF" fill-rule="evenodd">
        <path d="M11.794 13.006l.002.101-.002-.1m-3.111-7.48H8.68c-2.28 0-4.165.43-5.8 1.769C2.49 6.909 1.5 6.242 0 5.86v18.908h4.268V13.41s.006-.103.008-.28c.115-2.365 1.7-3.697 4.153-3.697 2.262 0 3.298 1.468 3.367 3.554a5.968 5.968 0 0 0-.076-.742c.049.317.07.657.07 1.016v11.509h4.284l.02-.098V13.149c0-4.528-2.425-7.618-7.403-7.622h-.008M24.548 17.411v-5.006c0-2.505 1.533-3.57 3.78-3.57 2.398 0 3.855 1.176 3.855 3.57v5.007c-.077 2.504-1.718 3.645-4.004 3.645-2.434 0-3.631-1.29-3.631-3.646m-4.307-5.005v5.006c0 4.527 3.481 7.363 8.088 7.363 4.533 0 8.162-2.761 8.162-7.363v-5.006c0-4.307-3.33-7.398-8.162-7.398-4.458-.002-8.088 2.76-8.088 7.398M52.191 5.758l-4.49 12.512L43.26 5.8l-.015-.041h-4.622l7.008 18.802.024.01c.644.263 1.387.263 2.042.263.727 0 1.474 0 2.123-.262l.021-.01 6.97-18.803h-4.62zM63.155 17.411v-5.006c0-2.505 1.538-3.57 3.788-3.57 2.102 0 3.48.906 3.79 2.74.015.273.018.555.018.85v4.954l.007.034s-.001.157.009.418c-.267 2.211-1.82 3.225-3.973 3.225-2.435.001-3.64-1.288-3.64-3.645M66.977 5l.032.008-.065-.002c-4.457 0-8.095 2.762-8.095 7.399v5.006c0 4.528 3.488 7.363 8.095 7.363 2.038 0 3.9-.559 5.327-1.592l.036.035c.58.542 1.445.965 2.795 1.372l.074.023-.007-12.183c0-1.06-.199-2.068-.599-2.984a6.855 6.855 0 0 0-1.681-2.352 7.64 7.64 0 0 0-2.591-1.54C69.281 5.186 68.163 5 66.977 5"/>
    </g>
</svg>
