<?xml version="1.0" encoding="utf-8"?>
<!-- Generator: Adobe Illustrator 16.0.0, SVG Export Plug-In . SVG Version: 6.00 Build 0)  -->
<!DOCTYPE svg PUBLIC "-//W3C//DTD SVG 1.1//EN" "http://www.w3.org/Graphics/SVG/1.1/DTD/svg11.dtd">
<svg version="1.1" id="Capa_1" xmlns="http://www.w3.org/2000/svg" xmlns:xlink="http://www.w3.org/1999/xlink" x="0px" y="0px"
	 width="50px" height="30px" viewBox="0 0 50 30" enable-background="new 0 0 50 30" xml:space="preserve">
<g>
	<g>
		<path fill="#FDFCFF" d="M7.369,2.263v0.071l1.135,0.758v5.44l-0.266-0.39L2.856,2.263H0.625v0.071L1.86,3.529v6.777l-1.059,0.758
			v0.071h2.785v-0.071l-1.147-0.758V4.405l6.189,6.718v0.012h0.479V3.104l1.096-0.77V2.263H7.369z M16.014,8.437
			c0-1.373-0.542-2.85-1.714-2.85c-0.946,0-1.374,1.077-1.374,2.365c0,1.444,0.579,2.923,1.714,2.923
			C15.522,10.875,16.014,9.799,16.014,8.437 M11.01,8.284c0-1.916,1.702-3.076,3.542-3.076c1.942,0,3.366,1.29,3.366,2.981
			c0,1.905-1.702,3.064-3.542,3.064C12.448,11.253,11.01,9.976,11.01,8.284 M18.825,6.071l-0.833-0.673V5.327h3.655v0.071
			L20.741,6.06L22.304,10l1.602-3.974l-0.946-0.627V5.327h2.419v0.071l-0.856,0.651l-2.219,5.085h-1.26L18.825,6.071z M27.37,8.249
			l2.306-0.769c-0.088-1.147-0.44-1.905-1.058-1.905c-0.869,0-1.298,0.888-1.298,1.987C27.319,7.799,27.332,8.036,27.37,8.249
			 M25.479,8.308c0-1.692,1.21-3.1,3.214-3.1c1.551,0,2.571,0.864,2.887,2.508l-0.491,0.095L27.421,8.52
			c0.253,1.064,0.995,1.81,2.407,1.81c0.553,0.006,1.097-0.124,1.588-0.378v0.153c-0.682,0.652-1.588,1.147-2.836,1.147
			C26.754,11.252,25.48,9.999,25.479,8.308 M33.143,3.21l-0.958-0.876V2.263h2.747v8.138l0.909,0.662v0.072h-3.604v-0.071
			l0.906-0.663V3.21z M40.566,10.059V7.965l-1.777,0.721c-0.125,0.178-0.267,0.426-0.267,0.793c0,0.615,0.38,1.005,1.021,1.005
			C39.937,10.484,40.314,10.283,40.566,10.059z M40.617,10.354c-0.454,0.437-1.173,0.899-2.067,0.899
			c-1.211,0-1.853-0.757-1.853-1.515c0-0.556,0.29-1.017,0.491-1.23l3.378-0.828V7.479c0-1.372-0.341-1.892-1.538-1.892h-0.15
			l-1.703,1.845h-0.05V5.327c0.958-0.059,1.828-0.119,2.723-0.119c2.293,0,2.533,1.171,2.533,2.779v2.39l0.907,0.687v0.071h-2.672
			L40.617,10.354L40.617,10.354z M44.246,11.099v-2h0.051l1.752,1.739c0.251,0.035,0.479,0.059,0.757,0.059
			c0.795,0,1.197-0.296,1.197-0.769c0-0.296-0.265-0.651-1.058-0.994l-1.297-0.568c-0.983-0.438-1.376-0.898-1.376-1.644
			c0-1.1,1.147-1.715,2.446-1.715c0.795,0,1.778,0.071,2.255,0.178v1.822h-0.037L47.12,5.623c-0.184-0.035-0.368-0.054-0.554-0.059
			c-0.544,0-0.908,0.224-0.908,0.638c0,0.403,0.289,0.663,1.134,1.03l1.375,0.627c0.831,0.366,1.296,0.768,1.296,1.49
			c0,1.478-1.549,1.904-2.86,1.904C45.897,11.252,44.901,11.182,44.246,11.099 M6.271,16.087c-1.484,0-2.7,0.275-3.771,1.097
			c-0.355-0.353-0.925-0.615-1.874-0.891v11.736h2.774v-7.055c0-1.575,1.047-2.467,2.701-2.467c1.533,0,2.191,0.937,2.191,2.375
			v7.148h2.774l0.024-0.069v-7.146C11.089,18.006,9.507,16.087,6.271,16.087 M16.582,20.305c0-1.553,0.998-2.215,2.458-2.215
			c1.551,0,2.497,0.724,2.505,2.195v3.069c0,0.035-0.002,0.069-0.003,0.104c-0.08,1.306-0.859,2-2.011,2.17
			c-0.146,0.018-0.294,0.027-0.442,0.027c-1.399,0-2.331-0.855-2.5-2.054c-0.003-0.064-0.007-0.127-0.007-0.191V20.305z
			 M19.089,28.029c2.896,0,5.255-1.711,5.255-4.588v-3.137c0-2.671-2.165-4.59-5.304-4.59c-2.896,0-5.256,1.712-5.256,4.59v3.106
			c0,2.741,2.12,4.62,5.287,4.62h0.019V28.029z M34.533,16.234l-2.918,7.761l-2.884-7.736l-0.01-0.024H25.72l4.552,11.664
			l0.016,0.006c0.42,0.162,0.902,0.162,1.328,0.162c0.473,0,0.956,0,1.379-0.162l0.015-0.006l4.526-11.664H34.533z M46.19,24.769
			c-0.293,0.385-0.704,0.662-1.17,0.789c-0.319,0.088-0.648,0.13-0.98,0.125c-1.536,0-2.314-0.744-2.314-2.215v-3.096
			c0-1.794,1.311-2.171,2.409-2.171c1.542,0,2.406,0.729,2.455,2.051v3.214l0.002,0.061C46.561,24.017,46.425,24.436,46.19,24.769z
			 M49.464,27.928l-0.003-7.556c0-0.66-0.131-1.282-0.39-1.852c-0.255-0.559-0.627-1.056-1.093-1.459
			c-0.493-0.424-1.065-0.749-1.683-0.955c-0.695-0.232-1.425-0.35-2.157-0.342h-0.006h0.002c-0.997,0-1.935,0.205-2.73,0.588
			c-0.363,0.174-0.694,0.385-0.993,0.632c-1.013,0.84-1.549,2.01-1.549,3.388v3.096c0,1.313,0.491,2.444,1.42,3.271
			c0.284,0.251,0.597,0.467,0.931,0.642c0.21,0.111,0.428,0.207,0.648,0.288c0.446,0.164,0.926,0.276,1.43,0.336
			c0.168,0.02,0.338,0.032,0.512,0.04h0.009c0.413,0.018,0.827,0,1.238-0.05c0.763-0.087,1.407-0.28,1.968-0.586
			c0.202-0.104,0.397-0.221,0.58-0.348l0.01,0.014c0.377,0.33,0.937,0.589,1.802,0.839l0.049,0.015v-0.002L49.464,27.928
			L49.464,27.928z"/>
	</g>
</g>
</svg>
