<?xml version="1.0" encoding="utf-8"?>
<svg version="1.1" id="Capa_1" xmlns="http://www.w3.org/2000/svg" xmlns:xlink="http://www.w3.org/1999/xlink" x="0px" y="0px" width="46" height="30" viewBox="0 0 46 30" style="enable-background:new 0 0 46 30;" xml:space="preserve">
<style type="text/css">
	.st0{display:none;}
	.st1{display:inline;fill-rule:evenodd;clip-rule:evenodd;fill:#FFFFFF;}
	.st2{display:inline;fill:#FFFFFF;}
	.st3{display:inline;}
	.st4{fill:#FFFFFF;}
	.st5{fill:#FFFFFF;}
</style>
<g class="st0">
	<path class="st1" fill="#FFF" d="M4.3,12.1h1L4.9,7.9L4.3,12.1z"/>
	<path class="st1" fill="#FFF" d="M8.6,17.8C8.6,17.8,8.6,17.8,8.6,17.8l-2.5,0C6,17.8,6,17.7,6,17.7l-0.4-2.8c0-0.1-0.1-0.1-0.2-0.1H4.3
		c-0.1,0-0.1,0.1-0.2,0.1l-0.4,2.8c0,0.1-0.1,0.1-0.2,0.1H1.1c-0.1,0-0.2-0.1-0.2-0.2c0,0,0,0,0,0c0,0,0,0,0,0L3.2,2.7
		c0-0.1,0.1-0.1,0.2-0.1v0h3.1c0.1,0,0.1,0.1,0.2,0.1l2.2,14.9C8.8,17.7,8.7,17.8,8.6,17.8C8.6,17.8,8.6,17.8,8.6,17.8L8.6,17.8z
		 M0,20.3h9.8V0H0V20.3z M17.8,8.8c0,0.6-0.3,1.1-0.7,1.5c0.4,0.4,0.7,0.9,0.7,1.5v2.4c0,1.2-0.8,2.7-2.5,2.7s-2.7-1.1-2.7-2.6v-1.6
		c0-0.2,0.1-0.3,0.3-0.3h1.7c0.2,0,0.3,0.1,0.3,0.3v1.6c0,0.2,0.1,0.3,0.3,0.3c0.2,0,0.3-0.1,0.3-0.2v-2.8v0c0-0.2-0.1-0.3-0.3-0.3
		c0,0,0,0,0,0h-0.5c-0.2,0-0.3-0.1-0.3-0.3V9.6c0-0.2,0.1-0.3,0.3-0.3h0.5c0.2,0,0.3-0.1,0.3-0.3c0,0,0,0,0,0V6.3
		c0-0.2-0.1-0.2-0.3-0.2c-0.2,0-0.3,0.1-0.3,0.3v1.6c0,0.2-0.1,0.3-0.3,0.3h-1.7c-0.2,0-0.3-0.1-0.3-0.3V6.4c0-1.5,1-2.6,2.7-2.6
		s2.5,1.5,2.5,2.7V8.8z M11.1,19h8.2V1.7h-8.2L11.1,19L11.1,19z M25.5,5.2c-0.4,0-0.5,0.3-0.5,0.6V7c0,0.6,0.7,1.4,2.1,2.4
		c1.2,0.9,1.7,2.1,1.7,3.4v1.7c0,2.8-1.7,3.4-3.4,3.4c-1.7,0-3.2-0.9-3.2-3.2v-2.3c0-0.1,0.1-0.2,0.2-0.2h2.4c0.1,0,0.2,0.1,0.2,0.2
		v2.1c0,0.4,0.2,0.6,0.5,0.6c0.4,0,0.4-0.3,0.4-0.6v-1.6c0-0.8-0.7-1.4-2.2-2.4c-1.2-0.9-1.6-2-1.6-3.1V5.5c0-1,0.3-3.2,3.2-3.2
		c2.2,0,3.3,1.1,3.3,3.4l0,2c0,0.1-0.1,0.3-0.3,0.3h-2.3C26.1,8.1,26,8,26,7.9V5.7C26,5.4,25.7,5.2,25.5,5.2L25.5,5.2z M20.7,0
		l0,20.3h9.6V0H20.7z M3.3,23.2v1.1h0.8v5.1h1.1v-5.1H6v-1.1L3.3,23.2L3.3,23.2z M1.7,25.6l0.2,1.5H1.5C1.5,27.1,1.7,25.6,1.7,25.6z
		 M1,23.2l-0.6,4l-0.3,2.2h1.1l0.2-1.3H2l0.2,1.3h1.1L3,27.2l-0.6-3.9L1,23.2L1,23.2z M7.6,24.3l0,1.5h0.1c0.1,0,0.1,0,0.2,0
		c0.1,0,0.2-0.1,0.2-0.3v-0.9c0-0.2-0.1-0.3-0.3-0.3C7.8,24.3,7.6,24.3,7.6,24.3z M6.5,23.2h1.4c0.8,0,1.3,0.5,1.3,1.4v0.9
		c0,0.6-0.2,0.9-0.6,1.1l1,2.8H8.3l-0.7-2.5v2.5H6.5L6.5,23.2C6.5,23.2,6.5,23.2,6.5,23.2z M9.9,23.2v6.2h2.5v-1.1H11v-1.5h1.2v-1.1
		H11v-1.5h1.4v-1.1L9.9,23.2z M12.9,24.5v0.6c0,0.6,0.3,1.1,0.9,1.5c0.5,0.4,0.8,0.7,0.8,0.9v0.7c0,0.2-0.1,0.3-0.3,0.3
		c-0.2,0-0.3-0.1-0.3-0.3v-0.9h-1.1v0.9c0,0.9,0.5,1.4,1.4,1.4c0.9,0,1.4-0.5,1.4-1.4v-0.8c0-0.6-0.3-1.1-0.9-1.5
		C14.3,25.6,14,25.3,14,25v-0.5c0-0.3,0.1-0.3,0.3-0.3c0.2,0,0.3,0.1,0.3,0.3v0.9h1.1v-0.9c0-0.9-0.5-1.4-1.4-1.4
		C13.4,23.1,12.9,23.6,12.9,24.5 M16.3,23.2v6.2h2.5v-1.1h-1.4v-1.5h1.2v-1.1h-1.2v-1.5h1.4v-1.1L16.3,23.2z M20.5,24.3l0,1.5h0.1
		c0.1,0,0.1,0,0.2,0c0.1,0,0.2-0.1,0.2-0.3v-0.9c0-0.2-0.1-0.3-0.3-0.3H20.5L20.5,24.3z M19.4,23.2h1.4c0.8,0,1.3,0.5,1.3,1.4v0.9
		c0,0.6-0.2,0.9-0.6,1.1l1,2.8h-1.2l-0.7-2.5v2.5h-1.1V23.2z M24.6,23.2v6.2h2.5v-1.1h-1.4v-1.5h1.2v-1.1h-1.2v-1.5h1.4v-1.1
		L24.6,23.2L24.6,23.2z M22.7,29.4h1.1v-6.2h-1.1V29.4z M27.6,24.5v0.6c0,0.6,0.3,1.1,0.9,1.5c0.5,0.4,0.8,0.7,0.8,0.9v0.7
		c0,0.2-0.1,0.3-0.3,0.3c-0.2,0-0.3-0.1-0.3-0.3v-0.9h-1.1v0.9c0,0.9,0.5,1.4,1.4,1.4c0.9,0,1.4-0.5,1.4-1.4v-0.8
		c0-0.6-0.3-1.1-0.9-1.5c-0.5-0.4-0.8-0.7-0.8-0.9v-0.5c0-0.3,0.1-0.3,0.3-0.3c0.2,0,0.3,0.1,0.3,0.3v0.9h1.1v-0.9
		c0-0.9-0.5-1.4-1.4-1.4C28,23.1,27.6,23.6,27.6,24.5L27.6,24.5z"/>
</g>
<g class="st0">
	<path class="st2" fill="#FFF" d="M46.7,24.7c0-1.2,0.3-2.1,1-2.8c0.7-0.7,1.6-1,2.8-1c0.6,0,1.1,0.1,1.6,0.3c0.5,0.2,0.9,0.4,1.2,0.8
		c0.6,0.7,0.9,1.8,0.7,3.1h-6.2v0.1c0,0.8,0.2,1.4,0.7,1.8c0.5,0.4,1.1,0.6,2,0.6c0.5,0,1-0.1,1.4-0.3c0.4-0.2,0.8-0.4,1-0.7
		l0.6,0.6c-0.3,0.4-0.8,0.7-1.3,0.9c-0.5,0.2-1.1,0.3-1.8,0.3c-1.2,0-2.1-0.3-2.8-1C47,26.8,46.7,25.9,46.7,24.7 M47.7,24.3h5.3
		c0-0.7-0.2-1.3-0.5-1.7c-0.5-0.5-1.1-0.7-2.1-0.7c-0.8,0-1.5,0.2-2,0.6C48,22.9,47.7,23.5,47.7,24.3L47.7,24.3z"/>
	<path class="st2" fill="#FFF" d="M56.4,21l0.2,1c0.1-0.1,0.1-0.2,0.2-0.3c0.1-0.1,0.3-0.2,0.4-0.3c0.2-0.1,0.4-0.2,0.7-0.3
		c0.3-0.1,0.6-0.1,0.9-0.1c0.1,0,0.2,0,0.2,0c0.1,0,0.2,0,0.2,0v1c-0.4,0-0.7,0-1,0c-0.3,0-0.6,0.2-0.9,0.4
		c-0.2,0.1-0.4,0.3-0.5,0.5c-0.1,0.2-0.2,0.3-0.3,0.5c-0.1,0.2-0.1,0.4-0.1,0.5c0,0.2,0,0.4,0,0.5v4h-1V21H56.4z"/>
	<path class="st2" fill="#FFF" d="M60.9,18.8c0-0.4,0.2-0.6,0.6-0.6c0.2,0,0.3,0,0.4,0.1c0.1,0.1,0.1,0.2,0.1,0.4c0,0.2,0,0.3-0.1,0.4
		c-0.1,0.1-0.2,0.1-0.4,0.1C61.1,19.4,60.9,19.2,60.9,18.8 M61,21h1v7.4h-1V21z"/>
	<path class="st2" fill="#FFF" d="M63.8,24.7c0-1.2,0.3-2.1,1-2.8c0.7-0.7,1.6-1,2.8-1c0.6,0,1.1,0.1,1.6,0.3c0.5,0.2,0.9,0.4,1.2,0.8
		c0.6,0.7,0.9,1.8,0.7,3.1h-6.2v0.1c0,0.8,0.2,1.4,0.7,1.8c0.5,0.4,1.1,0.6,2,0.6c0.5,0,1-0.1,1.4-0.3c0.4-0.2,0.8-0.4,1-0.7
		l0.6,0.6c-0.3,0.4-0.8,0.7-1.3,0.9c-0.5,0.2-1.1,0.3-1.8,0.3c-1.2,0-2.1-0.3-2.8-1C64.2,26.8,63.8,25.9,63.8,24.7 M64.9,24.3h5.3
		c0-0.7-0.2-1.3-0.5-1.7c-0.5-0.5-1.1-0.7-2.1-0.7c-0.8,0-1.5,0.2-2,0.6C65.1,22.9,64.9,23.5,64.9,24.3L64.9,24.3z"/>
	<path class="st2" fill="#FFF" d="M72.2,26.2h0.9c0,0.1,0,0.2,0.1,0.4c0.1,0.2,0.2,0.3,0.3,0.5c0.2,0.2,0.4,0.3,0.7,0.4c0.3,0.1,0.7,0.2,1.2,0.2
		c0.9,0,1.5-0.2,1.9-0.6c0.1-0.2,0.2-0.3,0.2-0.5c0-0.1,0-0.3,0-0.3c0-0.1,0-0.1-0.1-0.3c0-0.1-0.1-0.2-0.3-0.3
		c-0.1-0.1-0.4-0.2-0.6-0.3c-0.3-0.1-0.7-0.2-1.2-0.3c-1-0.1-1.8-0.4-2.2-0.8c-0.5-0.4-0.7-0.8-0.6-1.4c0-0.6,0.3-1.1,0.8-1.4
		c0.5-0.3,1.2-0.5,2-0.5c0.4,0,0.8,0.1,1.2,0.2c0.3,0.1,0.6,0.3,0.9,0.4c0.3,0.2,0.4,0.4,0.6,0.7c0.1,0.3,0.2,0.6,0.2,0.9h-0.9
		c0-0.3-0.1-0.5-0.2-0.7c-0.1-0.2-0.3-0.3-0.5-0.4c-0.2-0.1-0.4-0.2-0.6-0.2c-0.2,0-0.5-0.1-0.7-0.1c-0.6,0-1,0.1-1.4,0.3
		c-0.3,0.2-0.5,0.5-0.5,0.8c0,0.7,0.7,1.1,2.1,1.3c1.1,0.1,1.8,0.4,2.3,0.7c0.5,0.4,0.7,0.8,0.7,1.5c0,0.2-0.1,0.5-0.2,0.7
		c-0.1,0.2-0.3,0.5-0.6,0.6c-0.3,0.2-0.6,0.3-0.9,0.5c-0.4,0.1-0.8,0.2-1.3,0.2c-0.5,0-0.9,0-1.3-0.1c-0.4-0.1-0.8-0.2-1-0.4
		c-0.3-0.2-0.5-0.4-0.7-0.7C72.3,26.9,72.2,26.5,72.2,26.2"/>
	<g class="st3">
		<path class="st4" fill="#FFF" d="M43.5,20.5c0.2,0.2,0.3,0.4,0.3,0.6c0,0.2,0.1,0.4,0.1,0.5h1.1c0-0.8-0.4-1.5-1-2c-0.2-0.1-0.3-0.2-0.5-0.3
			L42.8,20C43.1,20.1,43.3,20.3,43.5,20.5z"/>
		<path class="st4" fill="#FFF" d="M44.8,24.2c-0.3-0.3-0.7-0.5-1.2-0.7c-0.5-0.2-1.2-0.4-2-0.5c-0.5-0.1-0.9-0.1-1.3-0.3
			c-0.1,0-0.2-0.1-0.3-0.1l-0.8,0.8c0.6,0.2,1.3,0.4,2.2,0.6c0.7,0.1,1.2,0.2,1.6,0.4c0.4,0.1,0.7,0.3,0.9,0.4
			c0.2,0.2,0.3,0.3,0.3,0.4c0,0.1,0.1,0.3,0.1,0.4c0,0.1,0,0.3,0,0.4c0,0.1,0,0.2-0.1,0.3c0,0.1-0.1,0.2-0.2,0.3
			c-0.2,0.2-0.6,0.4-0.9,0.5c-0.4,0.1-0.9,0.2-1.5,0.2c-0.6,0-1.1-0.1-1.5-0.2c-0.4-0.1-0.7-0.3-0.9-0.5c-0.2-0.2-0.4-0.4-0.5-0.6
			c-0.1-0.2-0.2-0.4-0.2-0.5h-1.1c0,0.5,0.2,1,0.5,1.3c0.3,0.4,0.6,0.6,1,0.9c0.4,0.2,0.9,0.4,1.3,0.5c0.5,0.1,1,0.1,1.4,0.1
			c0.7,0,1.2-0.1,1.7-0.2c0.5-0.1,0.9-0.3,1.2-0.6c0.3-0.2,0.6-0.5,0.7-0.8c0.2-0.3,0.2-0.6,0.3-0.9c0-0.3,0-0.6-0.1-0.9
			C45.3,24.7,45.1,24.5,44.8,24.2z"/>
	</g>
</g>
<g class="st0">
	<path class="st2" fill="#FFF" d="M12.6,8.3l-1.4-6.8H6.8L1.5,28.1H5l1.1-6.3h5.7l0.5,2.8l2.3-2.3l0.7-0.7L12.6,8.3z M11,18.8H6.6l0.7-3.7
		l0.3-1.9L9,6L9.9,11l1.4,7.8H11z"/>
	<g class="st3">
		<path class="st4" fill="#FFF" d="M21.9,1.2h-0.3c-0.8,0-1.6,0.1-2.2,0.2C17.6,1.9,16.3,3,15.8,5c-0.1,0.5-0.2,1.1-0.2,1.8v2.9h3.4V7.3
			c0-2.3,1.1-3.1,2.6-3.1h0.3c1.5,0,2.6,0.8,2.6,3.1v2.9c0,2-1,2.7-2.8,2.7h-2.7v3h3c1.5,0,2.4,0.7,2.4,2.4v4.2
			c0,1.1-0.2,1.8-0.6,2.3c-0.5,0.6-1.1,0.8-1.9,0.8h-0.3c-1.5,0-2.6-0.8-2.6-3.1v-1.8l-3.2,3.2l-0.2,0.2c0,0.1,0,0.2,0.1,0.3
			l0.1,0.5c0.5,2.2,2.1,3.5,4.7,3.7c0.2,0,0.4,0,0.7,0h1c1.8,0,3.1-0.4,4-1.3c1.1-1,1.6-2.4,1.6-4.3v-4.7c0-1.4-0.3-3.4-2.7-3.8
			c2.3-0.3,2.7-2.5,2.7-4.2V6.8C28,2.8,25.7,1.2,21.9,1.2"/>
		<path class="st4" fill="#FFF" d="M39.4,14L36,12.1c-1.5-0.9-2.1-1.4-2.1-3V7.3c0-1.9,0.8-2.8,2.4-2.9c0.2,0,0.3,0,0.5,0c1.8,0,2.9,0.8,2.9,3
			v0.4v3.2h3.2h0.3V6.7c0-3.8-2.7-5.5-6.3-5.5h-0.1c-1.1,0-2.2,0.2-3.1,0.5c-2,0.7-3.2,2.3-3.2,5V10c0,2.6,1.3,3.7,3.7,5.1l3.4,1.9
			c0.9,0.5,1.5,1,1.8,1.6L42,16C41.4,15.2,40.5,14.6,39.4,14"/>
		<path class="st4" fill="#FFF" d="M33.9,22.3v-3.9h-3.5v4.5c0,1.6,0.4,2.8,1.1,3.7l2.7-2.7C34,23.4,33.9,22.9,33.9,22.3"/>
	</g>
</g>
<g>
	<path class="st4" fill="#FFF" d="M11.8,6.9l-1.3-6.3H6.4L1.5,25.2h3.2l1.1-5.8h5.3l0.4,2.6l2.1-2.1l0.6-0.6L11.8,6.9z M10.4,16.6H6.3l0.6-3.4
		l0.3-1.7l1.2-6.7l0.8,4.7l1.3,7.2H10.4z"/>
	<g>
		<path class="st4" fill="#FFF" d="M20.4,0.3h-0.2c-0.7,0-1.4,0.1-2,0.2C16.4,1,15.2,2,14.8,3.9c-0.1,0.5-0.2,1-0.2,1.6v2.6h3.1V5.9
			c0-2.1,1-2.8,2.4-2.8h0.3c1.4,0,2.4,0.7,2.4,2.8v2.6c0,1.9-0.9,2.5-2.6,2.5h-2.5v2.7h2.8c1.4,0,2.2,0.7,2.2,2.2v3.8
			c0,1-0.2,1.7-0.6,2.1c-0.4,0.5-1,0.7-1.8,0.7h-0.2c-1.4,0-2.4-0.7-2.4-2.8v-1.7l-3,3l-0.2,0.2c0,0.1,0,0.2,0,0.3l0.1,0.4
			c0.5,2.1,1.9,3.3,4.4,3.4c0.2,0,0.4,0,0.6,0h0.9c1.6,0,2.9-0.4,3.7-1.2c1-0.9,1.5-2.2,1.5-4v-4.3c0-1.3-0.2-3.1-2.5-3.5
			c2.1-0.3,2.5-2.3,2.5-3.9v-3C25.9,1.8,23.9,0.3,20.4,0.3"/>
		<path class="st4" fill="#FFF" d="M36.5,12.2l-3.2-1.8c-1.4-0.8-1.9-1.3-1.9-2.8V5.9c0-1.8,0.8-2.6,2.2-2.7c0.1,0,0.3,0,0.4,0
			c1.7,0,2.6,0.8,2.6,2.7v0.4v3h3h0.3V5.4c0-3.5-2.5-5.1-5.8-5.1H34c-1.1,0-2,0.1-2.8,0.5c-1.8,0.7-3,2.2-3,4.6v3.1
			c0,2.4,1.2,3.4,3.4,4.7l3.2,1.8c0.9,0.5,1.4,0.9,1.7,1.5l2.4-2.4C38.3,13.3,37.5,12.7,36.5,12.2"/>
		<path class="st4" fill="#FFF" d="M31.4,19.8v-3.6h-3.2v4.2c0,1.5,0.3,2.6,1,3.4l2.5-2.5C31.5,20.8,31.4,20.3,31.4,19.8"/>
		
			<rect x="22.8" y="20.3" transform="matrix(0.7071 -0.7071 0.7071 0.7071 -4.0876 31.3394)" class="st4" width="25.9" height="0.6"/>
	</g>
</g>
<g>
	<path class="st4" fill="#FFF" d="M11.1,6.6L9.8,0.3H5.8L0.9,24.8h3.2l1.1-5.8h5.3l0.4,2.6l2.1-2.1l0.6-0.6L11.1,6.6z M9.7,16.3H5.6l0.6-3.4
		l0.3-1.7l1.2-6.7l0.8,4.7l1.3,7.2H9.7z"/>
	<g>
		<path class="st4" fill="#FFF" d="M19.8,0h-0.2c-0.7,0-1.4,0.1-2,0.2c-1.8,0.4-2.9,1.5-3.3,3.3C14,4,14,4.6,14,5.2v2.6h3.1V5.6
			c0-2.1,1-2.8,2.4-2.8h0.3c1.4,0,2.4,0.7,2.4,2.8v2.6c0,1.9-0.9,2.5-2.6,2.5h-2.5v2.7h2.8c1.4,0,2.2,0.7,2.2,2.2v3.8
			c0,1-0.2,1.7-0.6,2.1c-0.4,0.5-1,0.7-1.8,0.7h-0.2c-1.4,0-2.4-0.7-2.4-2.8v-1.7l-3,3L14,21c0,0.1,0,0.2,0,0.3l0.1,0.4
			c0.5,2.1,1.9,3.3,4.4,3.4c0.2,0,0.4,0,0.6,0h0.9c1.6,0,2.9-0.4,3.7-1.2c1-0.9,1.5-2.2,1.5-4v-4.3c0-1.3-0.2-3.1-2.5-3.5
			c2.1-0.3,2.5-2.3,2.5-3.9v-3C25.3,1.5,23.2,0,19.8,0"/>
		<path class="st4" fill="#FFF" d="M35.9,11.9l-3.2-1.8c-1.4-0.8-1.9-1.3-1.9-2.8V5.6c0-1.8,0.8-2.6,2.2-2.7c0.1,0,0.3,0,0.4,0
			c1.7,0,2.6,0.8,2.6,2.7V6v3h3h0.3V5.1c0-3.5-2.5-5.1-5.8-5.1h-0.1c-1.1,0-2,0.1-2.8,0.5c-1.8,0.7-3,2.2-3,4.6v3.1
			c0,2.4,1.2,3.4,3.4,4.7l3.2,1.8c0.9,0.5,1.4,0.9,1.7,1.5l2.4-2.4C37.6,13,36.8,12.4,35.9,11.9"/>
		<path class="st4" fill="#FFF" d="M30.7,19.4v-3.6h-3.2V20c0,1.5,0.3,2.6,1,3.4l2.5-2.5C30.8,20.5,30.7,20,30.7,19.4"/>
		<rect x="22.2" y="20" transform="matrix(0.7071 -0.7071 0.7071 0.7071 -4.0499 30.7839)" class="st4" width="25.9" height="0.6"/>
	</g>
</g>
</svg>
